<?xml version="1.0" standalone="no"?>
<!DOCTYPE svg PUBLIC "-//W3C//DTD SVG 20010904//EN"
 "http://www.w3.org/TR/2001/REC-SVG-20010904/DTD/svg10.dtd">
<svg version="1.0" xmlns="http://www.w3.org/2000/svg"
 width="452.000000pt" height="452.000000pt" viewBox="0 0 452.000000 452.000000"
 preserveAspectRatio="xMidYMid meet">
<metadata>
Created by potrace 1.15, written by Peter Selinger 2001-2017
</metadata>
<g transform="translate(0.000000,452.000000) scale(0.100000,-0.100000)"
fill="#000000" stroke="none">
<path d="M10 4510 c12 -8 13 -13 3 -29 -8 -13 -9 -21 -2 -23 7 -2 7 -12 0 -31
-7 -19 -11 -184 -11 -476 l0 -447 89 -12 c48 -7 109 -12 134 -12 l45 0 -20
-67 c-11 -38 -24 -72 -29 -78 -5 -5 -9 -19 -9 -31 0 -30 -22 -45 -56 -39 -16
2 -46 7 -67 10 -50 8 -40 21 24 29 44 6 49 9 38 22 -29 35 -93 53 -133 38 -14
-5 -16 -58 -16 -484 l0 -478 32 -7 c18 -4 41 -9 50 -11 10 -3 37 -42 61 -87
24 -45 62 -114 84 -153 64 -114 89 -180 74 -198 -8 -9 -11 -26 -7 -41 5 -19 3
-23 -9 -19 -11 5 -15 -1 -15 -18 0 -13 5 -29 10 -34 7 -7 8 -19 1 -36 -12 -31
-31 -45 -40 -30 -4 7 -12 3 -20 -10 -11 -18 -11 -20 3 -15 21 8 22 -36 1 -53
-17 -14 -20 -40 -4 -40 5 0 7 -4 4 -10 -3 -5 -1 -18 5 -27 11 -17 11 -17 6 0
-3 9 -1 17 5 17 14 0 7 -52 -7 -57 -6 -2 -17 16 -24 39 -16 51 -162 342 -190
378 -19 25 -20 24 -20 -223 0 -244 0 -248 24 -285 45 -71 109 -243 100 -267
-5 -12 -4 -16 3 -12 6 4 14 0 17 -9 3 -9 2 -12 -4 -9 -7 4 -9 -3 -6 -19 6 -34
15 -48 27 -41 5 4 9 4 9 1 0 -10 -37 -44 -61 -56 -17 -10 -19 -14 -8 -22 11
-7 11 -11 1 -15 -18 -7 -15 -19 13 -37 l25 -16 -5 35 c-3 26 0 35 10 35 8 0
15 5 15 11 0 5 5 7 11 3 8 -4 9 1 4 17 -14 44 2 15 34 -61 39 -94 41 -117 13
-158 -12 -17 -31 -45 -42 -62 -11 -16 -20 -34 -20 -40 0 -5 -5 -9 -11 -7 -6 1
-14 -4 -17 -12 -3 -9 0 -11 8 -6 9 5 10 2 6 -12 -5 -15 -1 -19 25 -21 17 -1
39 -7 49 -12 11 -6 21 -5 28 2 7 7 12 8 12 2 0 -5 -9 -17 -19 -26 -11 -9 -25
-35 -32 -57 -7 -23 -16 -41 -22 -41 -5 0 -6 -12 -3 -27 l7 -28 -21 30 c-11 17
-19 38 -16 48 2 9 1 15 -4 12 -4 -3 -11 6 -14 20 -5 21 -41 106 -126 300 -5
12 -9 -94 -9 -268 -1 -275 0 -290 20 -330 12 -23 32 -71 44 -106 l23 -64 -22
-21 c-12 -12 -27 -33 -34 -48 -6 -16 -16 -28 -22 -28 -5 0 -10 -13 -10 -30 l0
-30 169 0 c126 0 171 3 174 13 4 9 6 9 6 0 2 -24 29 -13 41 16 13 32 40 49 40
26 0 -8 -4 -15 -10 -15 -5 0 -14 -9 -20 -20 -10 -18 -8 -20 28 -20 l38 0 22
67 c11 36 19 70 16 75 -3 4 -3 8 0 8 10 0 68 -129 62 -138 -3 -6 36 -10 99
-11 102 -2 105 -1 105 20 0 12 7 31 16 41 16 16 11 30 -79 210 -53 106 -117
247 -143 313 -25 66 -48 126 -51 133 -3 7 3 12 14 12 36 0 43 20 43 127 0 57
4 103 9 103 5 0 12 10 17 23 5 14 10 -25 13 -110 3 -72 9 -135 13 -139 4 -4
79 -6 167 -6 l160 2 -10 -33 c-5 -17 -12 -102 -15 -187 -3 -85 -7 -160 -9
-166 -6 -21 -75 8 -75 31 0 11 -4 26 -9 34 -13 20 -24 -62 -17 -125 4 -46 4
-48 -9 -24 -10 17 -14 20 -15 9 0 -9 10 -28 21 -43 18 -23 20 -32 10 -52 -7
-16 -7 -24 0 -24 6 0 7 -4 4 -10 -9 -15 13 -48 50 -73 19 -13 32 -27 28 -30
-3 -4 6 -7 21 -7 15 0 39 -6 54 -13 34 -16 295 -24 272 -8 -12 9 -10 11 10 12
14 0 -3 8 -40 19 -89 24 -217 73 -263 100 -39 23 -52 39 -16 20 40 -22 29 -3
-16 25 -25 16 -45 33 -45 38 0 4 -4 6 -9 2 -18 -10 -37 32 -33 75 l4 41 34
-26 c19 -14 40 -25 46 -24 32 4 53 -5 135 -59 48 -32 100 -66 115 -75 27 -17
183 -65 401 -123 l128 -34 385 0 c261 0 392 4 406 11 15 8 19 8 14 0 -5 -8 28
-11 113 -11 74 0 121 4 121 10 0 6 5 10 11 10 5 0 7 -4 4 -10 -7 -12 104 -14
123 -2 10 7 9 15 -3 39 -15 31 -12 83 5 83 5 0 7 8 5 18 -1 9 0 12 2 5 2 -6
11 -14 20 -17 12 -5 14 -1 9 19 l-7 26 28 -18 c39 -24 41 -26 14 -18 -16 5
-21 4 -17 -4 4 -6 3 -11 -1 -11 -15 0 -31 -96 -19 -112 12 -14 114 -23 147
-13 21 7 26 31 7 37 -23 8 3 28 28 22 15 -4 24 -2 24 6 0 6 -9 14 -20 17 -10
3 -22 13 -25 23 -7 21 -33 45 -40 38 -3 -3 1 -18 10 -34 13 -26 10 -36 -12
-35 -4 0 -9 13 -11 28 -2 15 -9 31 -15 35 -21 13 4 23 61 23 l57 0 -3 -30 c-2
-28 -2 -29 12 -11 9 11 23 17 35 13 22 -5 34 14 24 40 -3 10 -2 15 2 10 33
-29 39 -149 9 -161 -8 -3 -14 -10 -14 -16 0 -7 36 -10 110 -9 89 2 106 4 93
15 -20 14 -27 82 -11 102 8 9 31 13 67 12 107 -3 137 0 121 10 -8 5 -10 10 -5
11 6 0 2 3 -7 7 -12 5 -14 11 -9 21 12 19 109 23 143 6 22 -10 26 -10 21 0 -4
11 2 11 31 3 20 -6 36 -15 36 -20 0 -4 4 -8 10 -8 5 0 7 7 3 16 -4 12 -2 15 8
12 16 -5 19 -30 4 -41 -5 -4 2 -5 18 -3 15 3 27 0 27 -5 0 -14 58 -11 63 4 4
9 6 9 6 0 1 -7 10 -13 20 -13 11 0 22 6 24 13 4 10 6 10 6 0 1 -18 28 -16 35
2 3 8 13 15 22 15 10 0 14 -5 11 -14 -5 -12 2 -14 31 -11 20 2 36 8 35 14 -5
18 57 13 64 -5 4 -11 13 -13 34 -9 18 4 29 2 29 -4 0 -7 8 -7 26 -1 14 6 32 7
39 3 7 -5 55 -6 106 -3 70 4 96 2 106 -9 12 -11 14 26 12 239 l-1 252 -25 -5
c-19 -3 -27 0 -30 13 -3 11 -11 16 -19 13 -10 -4 -14 4 -14 32 0 37 0 37 23
21 12 -9 29 -19 37 -23 8 -4 18 -11 22 -17 5 -7 8 -4 8 6 0 9 -9 20 -20 23
-11 3 -26 12 -32 18 -7 7 -26 20 -41 30 -24 15 -28 25 -27 55 1 20 1 42 0 47
-1 6 -2 13 -1 18 0 4 -3 7 -8 7 -5 0 -12 21 -15 48 -4 26 -13 63 -20 82 -7 19
-18 51 -24 70 -15 47 -34 233 -27 252 4 9 1 19 -6 24 -7 4 -10 3 -5 -4 3 -6 2
-13 -3 -16 -5 -4 -14 20 -21 51 -6 32 -21 81 -34 108 -13 28 -32 71 -42 97
-11 27 -22 48 -26 48 -11 0 -37 54 -43 90 -7 40 -46 134 -57 138 -4 2 -8 11
-8 20 0 10 -12 31 -28 47 -15 17 -35 47 -45 68 l-17 38 -29 -32 c-45 -49 -73
-12 -31 40 17 19 23 21 35 11 10 -9 15 -9 15 -1 0 6 -4 11 -10 11 -5 0 -10 9
-10 20 0 12 -16 28 -48 46 -26 15 -51 32 -57 38 -26 29 -115 85 -157 99 -58
19 -218 119 -270 169 -22 20 -41 37 -44 37 -2 1 -7 1 -10 1 -4 0 -2 6 3 13 5
6 20 40 32 74 21 56 25 61 42 52 11 -5 19 -6 19 -2 0 4 -11 13 -25 19 -21 10
-24 9 -28 -10 -3 -20 -4 -21 -12 -1 -5 11 -23 33 -40 50 -38 35 -78 103 -70
116 4 5 15 9 26 9 20 0 26 24 9 35 -6 3 -8 19 -5 35 5 31 -18 95 -37 103 -10
4 -10 6 0 6 13 1 17 41 4 41 -11 0 -34 49 -27 59 2 5 -4 16 -14 25 -10 9 -27
38 -36 64 -10 26 -31 66 -47 89 -29 43 -36 77 -17 89 7 4 7 9 1 13 -6 4 -6 30
-1 71 12 87 8 284 -7 341 -6 25 -28 70 -48 100 -20 29 -36 58 -36 64 0 20 -45
14 -70 -9 -14 -13 -44 -35 -67 -50 -24 -14 -43 -30 -43 -34 0 -4 -14 -23 -31
-42 -17 -19 -37 -47 -45 -62 -8 -16 -19 -28 -24 -28 -6 0 -10 -6 -10 -12 -1
-20 -32 -52 -64 -66 -31 -14 -96 -5 -161 23 -22 9 -46 10 -90 3 -137 -21 -183
-28 -250 -39 -67 -11 -75 -11 -155 16 -91 30 -253 106 -283 133 -10 8 -34 17
-54 19 -20 1 -44 9 -52 18 -20 20 -2 19 27 0 19 -14 21 -14 16 -1 -3 8 -22 20
-42 27 -21 7 -40 17 -44 23 -4 6 -7 -2 -6 -19 0 -16 18 -66 40 -111 45 -96 69
-113 129 -97 47 12 116 -1 116 -22 0 -8 -13 -17 -29 -20 -15 -4 -26 -11 -23
-15 3 -5 -17 -10 -44 -12 -50 -3 -50 -3 -38 -28 9 -17 24 -27 49 -31 53 -8 98
0 91 17 -3 8 1 14 11 14 9 0 16 4 16 9 0 13 -27 21 -45 15 -22 -9 -18 14 4 26
26 13 71 -7 71 -32 0 -10 6 -18 14 -18 8 0 18 -5 22 -12 4 -7 3 -8 -4 -4 -21
13 -35 -5 -15 -19 17 -13 17 -14 1 -20 -10 -4 -15 -11 -12 -16 3 -5 -2 -9 -10
-9 -9 0 -16 5 -16 10 0 6 -4 10 -10 10 -5 0 -10 -7 -10 -15 0 -17 -35 -21 -45
-5 -3 6 -24 10 -46 10 -38 0 -39 -1 -25 -22 23 -38 28 -86 10 -96 -13 -7 -10
-11 15 -22 20 -8 31 -20 31 -32 0 -11 9 -31 20 -45 11 -14 20 -29 20 -34 0
-15 -29 2 -33 19 -4 15 -5 14 -6 -1 -1 -11 -6 -15 -12 -11 -8 4 -8 0 0 -15 10
-17 9 -22 -3 -27 -8 -3 -18 -14 -21 -25 -8 -24 -32 -25 -39 -1 -3 9 -3 -3 0
-28 3 -24 10 -47 16 -51 14 -9 -28 -79 -47 -79 -7 0 -16 -6 -18 -12 -4 -8 -6
-7 -6 4 -1 9 -4 24 -8 34 -5 14 -3 16 13 10 14 -5 16 -4 8 4 -6 6 -17 8 -25 5
-17 -6 -17 -63 0 -93 9 -16 10 -16 16 1 8 20 35 23 35 3 0 -7 -7 -29 -15 -48
-12 -30 -12 -38 0 -54 11 -15 16 -17 26 -6 22 21 35 13 49 -27 7 -22 20 -43
29 -46 10 -4 12 -8 4 -13 -20 -13 -25 -68 -8 -85 14 -14 14 -17 -2 -27 -14 -8
2 -9 62 -6 118 7 128 7 139 -4 7 -7 3 -10 -12 -10 -12 0 -22 -4 -22 -9 0 -15
-41 -24 -53 -12 -8 8 -5 11 13 11 13 0 21 2 18 5 -3 3 -36 3 -73 -1 -68 -7
-68 -7 -46 -25 13 -11 19 -23 15 -30 -5 -9 -2 -10 12 -5 10 4 34 10 52 13 32
6 156 62 138 63 -6 0 -4 6 2 12 9 9 15 9 20 3 4 -6 19 -16 35 -22 15 -7 27
-19 27 -28 0 -8 14 -22 30 -30 17 -9 39 -29 48 -44 13 -21 22 -26 37 -21 11 4
38 1 60 -7 47 -17 140 -19 159 -4 7 6 16 8 20 4 7 -7 42 37 38 50 -5 17 18 3
88 -53 70 -56 90 -68 90 -54 0 3 -15 19 -32 36 -23 21 -25 26 -8 14 13 -9 32
-16 42 -16 9 0 24 -7 33 -16 14 -15 18 -15 40 0 13 9 33 16 44 16 35 0 31 16
-7 35 -78 37 -237 86 -263 81 -27 -5 -51 18 -26 27 20 6 186 -37 197 -53 5 -6
162 -70 173 -70 4 0 7 4 7 9 0 6 -21 17 -47 25 -33 10 -37 13 -13 9 19 -4 47
-7 62 -8 14 0 24 -3 22 -7 -2 -3 19 5 46 18 54 26 140 43 140 28 0 -5 -9 -16
-19 -24 -11 -7 -18 -17 -15 -22 3 -4 -2 -8 -11 -8 -9 0 -13 -5 -10 -11 5 -7
13 -5 24 5 22 20 37 21 21 1 -17 -21 8 -29 69 -22 37 4 48 3 48 -9 0 -15 -31
-29 -46 -20 -5 3 -8 -2 -7 -12 1 -12 -5 -16 -23 -14 -23 2 -22 0 10 -28 36
-32 35 -36 -6 -20 -44 17 -138 -11 -287 -85 -27 -13 -48 -21 -48 -17 0 4 -4 3
-8 -3 -7 -10 -55 -29 -180 -73 -59 -20 -76 -22 -85 -12 -10 10 -8 12 6 7 21
-8 23 9 1 17 -26 10 -44 7 -44 -8 0 -18 -6 -21 -45 -29 l-30 -7 33 17 c17 9
32 20 32 25 0 11 -7 10 -30 -2 -27 -14 -35 5 -16 35 15 22 15 25 1 25 -8 0
-15 7 -15 15 0 25 -24 17 -45 -15 -11 -17 -28 -33 -37 -36 -10 -3 -18 -9 -18
-13 0 -4 -23 -13 -50 -20 -28 -7 -48 -17 -44 -22 4 -8 -44 -15 -70 -10 -5 1
-35 6 -65 10 -56 8 -55 9 30 10 80 1 142 13 163 31 4 5 2 8 -5 7 -48 -2 -68 4
-63 18 4 8 1 15 -5 15 -6 0 -11 -7 -11 -15 0 -11 -11 -15 -40 -15 -22 0 -40 4
-40 8 0 4 16 6 35 4 21 -3 35 0 35 7 0 15 -83 14 -97 0 -17 -17 -86 -2 -79 17
3 8 1 14 -4 14 -6 0 -10 -4 -10 -10 0 -5 -4 -10 -10 -10 -5 0 -7 7 -3 16 4 12
2 15 -8 12 -8 -3 -15 -11 -17 -19 -3 -18 38 -69 56 -69 7 0 12 -3 12 -7 0 -5
-13 -8 -30 -8 -23 0 -30 5 -35 25 l-7 25 -19 -25 c-19 -25 -19 -25 -4 25 8 28
15 53 15 58 0 15 -17 6 -29 -15 -9 -18 -10 -18 -5 -3 3 11 7 26 8 34 2 20 -45
22 -68 2 -18 -14 -17 -12 2 21 22 35 22 37 5 54 -10 10 -17 19 -15 21 7 9 0
23 -12 23 -9 0 -12 8 -8 25 3 19 0 25 -13 25 -14 0 -15 3 -5 15 10 12 9 15 -7
15 -10 0 -28 -7 -41 -15 -19 -14 -21 -14 -16 -1 3 8 19 19 35 25 16 5 29 13
29 17 0 3 -7 4 -15 0 -8 -3 -15 -1 -15 3 0 5 7 11 15 15 8 3 15 10 15 16 0 6
-5 8 -10 5 -6 -3 -10 3 -10 14 0 17 -8 20 -52 23 l-53 4 43 8 c23 5 42 12 42
17 0 5 -5 9 -11 9 -5 0 -7 5 -4 10 3 6 -1 18 -10 27 -9 9 -14 24 -12 34 3 11
0 19 -8 19 -7 0 -20 10 -29 23 -15 21 -16 21 -30 3 -18 -22 -46 -15 -46 13 0
22 -16 37 -22 21 -2 -6 -13 -2 -25 10 -29 27 -33 25 -33 -10 0 -21 -4 -28 -14
-24 -8 3 -17 1 -21 -5 -9 -16 -22 -13 -42 8 -18 18 -18 18 -38 -1 -20 -19 -20
-20 8 -13 23 6 27 4 27 -14 0 -34 98 -87 205 -111 34 -8 32 -8 -18 -4 -52 5
-89 18 -167 59 -14 7 -35 16 -47 20 -20 5 -23 3 -23 -19 0 -16 6 -26 14 -26
16 0 31 -18 23 -26 -8 -8 -47 20 -47 33 0 17 -9 16 -44 -2 -24 -13 -31 -13
-38 -3 -14 23 -9 67 10 77 15 10 15 11 -5 17 -13 3 -23 13 -23 21 0 8 4 12 9
9 10 -7 25 24 16 33 -3 3 -11 -1 -16 -9 -8 -11 -9 23 -6 110 3 69 1 112 -3 95
l-8 -30 -1 36 c0 20 -3 52 -6 70 -4 28 -3 29 3 9 9 -25 9 -25 16 8 8 35 15 39
34 20 9 -9 12 -9 12 0 0 7 -5 12 -11 12 -6 0 -9 9 -6 20 3 10 0 21 -5 22 -6 2
-13 27 -16 56 -2 28 -8 49 -13 46 -5 -2 -6 -18 -2 -34 3 -19 1 -30 -6 -30 -6
0 -11 -8 -12 -17 -3 -45 -40 111 -46 189 -5 75 -3 94 12 122 16 29 17 37 5 51
-10 13 -15 13 -21 3 -7 -10 -9 -10 -9 2 0 32 -30 428 -36 482 -6 49 -4 57 12
61 17 4 17 5 2 6 -12 1 -18 9 -18 24 0 12 -7 103 -15 202 -8 99 -15 183 -15
188 0 4 -117 7 -260 7 l-260 0 -19 -37 c-10 -21 -23 -37 -27 -35 -5 2 -10 -2
-13 -9 -2 -7 1 -9 8 -5 7 5 9 1 4 -11 -12 -34 -28 -50 -50 -48 -14 1 -19 -3
-16 -12 3 -8 12 -12 20 -8 11 4 13 1 8 -12 -4 -10 -13 -37 -20 -59 -17 -53
-36 -84 -53 -84 -7 0 -10 -4 -7 -10 3 -5 -5 -21 -19 -35 -15 -14 -26 -28 -26
-31 0 -3 -10 -18 -21 -32 l-21 -27 7 25 c7 21 6 23 -7 12 -13 -10 -17 -9 -22
10 -9 34 -7 45 5 28 9 -12 10 -11 6 8 -6 27 0 28 26 5 19 -18 19 -17 12 15 -4
20 -3 32 4 32 6 0 11 -9 11 -20 0 -11 4 -20 9 -20 11 0 36 30 25 30 -5 0 0 8
11 16 14 11 16 18 8 21 -7 3 -13 11 -13 19 0 9 -4 12 -10 9 -11 -7 -14 8 -4
18 8 8 34 -18 34 -34 0 -9 4 -8 15 1 21 18 19 35 -8 47 -30 14 -57 -5 -57 -41
0 -28 -36 -52 -53 -36 -15 13 -3 45 16 42 22 -4 59 69 39 76 -7 2 -19 10 -26
18 -8 8 -22 14 -30 14 -9 0 -16 7 -16 16 0 8 4 13 9 10 5 -3 12 1 15 10 9 23
8 24 -18 24 -14 0 -28 5 -31 10 -3 6 -1 10 5 10 7 0 8 6 2 16 -11 20 -4 56 9
48 5 -3 9 -1 9 4 0 5 -31 9 -69 10 -56 0 -69 -3 -64 -14 6 -15 -21 -15 -45 0
-18 11 -29 -1 -14 -16 18 -18 15 -35 -14 -63 -14 -14 -22 -30 -19 -35 3 -5 1
-18 -4 -27 -9 -16 -10 -16 -11 5 0 24 -14 29 -27 9 -11 -17 -62 -39 -74 -32
-30 19 12 95 53 95 33 0 50 14 42 33 -4 12 -2 16 8 12 9 -4 14 2 14 15 0 19
-7 20 -91 20 -61 0 -85 -3 -75 -10z m333 -110 c6 -16 18 -30 26 -30 8 0 11 -3
8 -7 -4 -3 1 -15 10 -25 14 -16 15 -23 5 -39 -7 -11 -10 -24 -7 -29 3 -5 -4
-19 -16 -31 -17 -17 -23 -19 -30 -8 -8 12 -10 12 -18 0 -7 -11 -11 -9 -20 8
-17 32 -31 16 -31 -35 0 -28 -4 -43 -10 -39 -5 3 -10 22 -10 41 0 41 -22 54
-49 30 -10 -9 -23 -16 -29 -16 -7 0 -12 -4 -12 -10 0 -5 -4 -10 -9 -10 -17 0
-5 49 16 68 12 10 23 31 25 47 2 21 11 34 31 43 19 9 27 21 27 38 0 20 4 24
19 19 11 -3 22 -1 26 5 12 20 37 10 48 -20z m55 -948 c25 -16 25 -17 13 -40
-5 -9 -5 -26 -1 -37 7 -18 8 -18 15 8 9 32 20 35 35 6 9 -15 8 -33 -1 -67 -10
-42 -9 -52 10 -94 16 -35 20 -58 15 -87 -8 -50 3 -111 19 -111 7 0 27 14 45
30 29 26 41 30 90 30 31 0 68 -6 82 -13 23 -12 25 -17 23 -80 -2 -50 -7 -71
-21 -85 -24 -24 -112 -208 -119 -248 -6 -36 7 -49 41 -40 40 10 89 68 106 125
7 22 8 23 9 5 1 -30 -19 -84 -32 -84 -6 0 -8 -3 -4 -6 3 -3 1 -19 -5 -34 -9
-27 -90 -90 -115 -90 -6 0 -16 13 -23 29 -6 16 -22 39 -36 52 -13 12 -24 29
-24 36 0 8 -11 48 -25 91 -13 42 -29 95 -35 117 -5 23 -18 50 -28 60 -10 11
-24 36 -31 55 -8 19 -23 44 -33 56 -10 11 -18 25 -18 32 0 6 -5 14 -12 18 -7
5 -8 3 -3 -6 6 -9 -2 -11 -31 -6 -22 3 -61 8 -87 12 -39 5 -45 8 -32 18 15 11
14 14 -5 31 l-22 20 33 5 c43 7 47 24 8 40 l-31 13 36 16 c22 10 34 21 31 29
-5 13 0 24 46 102 15 25 32 62 39 83 10 32 15 37 33 31 12 -4 32 -14 45 -22z
m489 -139 c0 -15 6 -29 12 -31 6 -2 11 -12 11 -23 0 -10 4 -19 8 -19 10 0 9
51 -2 68 -14 22 21 12 57 -17 20 -15 50 -34 66 -41 26 -10 29 -16 24 -40 -6
-31 -2 -33 107 -45 30 -3 62 -10 69 -15 23 -14 -74 -24 -130 -13 -53 11 -57 9
-32 -19 15 -17 15 -19 -4 -36 -19 -15 -19 -20 -7 -37 21 -29 17 -38 -13 -30
l-28 7 28 -29 c15 -16 27 -32 27 -35 0 -3 -30 9 -67 28 -72 36 -83 39 -83 25
0 -5 29 -23 64 -40 98 -46 98 -63 -1 -35 -16 4 -23 1 -28 -17 -7 -22 -8 -22
-21 -4 -8 10 -14 30 -14 43 0 13 -4 31 -9 40 -5 9 -11 32 -14 51 -3 18 -11 39
-17 45 -9 8 -10 -7 -6 -61 7 -73 7 -73 -18 -73 -14 0 -30 -8 -35 -17 -9 -16
-11 -15 -12 7 -2 51 3 97 22 170 10 41 19 101 19 132 0 57 7 88 19 88 3 0 7
-12 8 -27z m-323 -1092 l79 -28 22 -61 c12 -34 27 -68 32 -74 6 -7 18 -35 29
-63 10 -27 24 -60 32 -72 8 -13 11 -32 7 -45 -4 -15 -3 -19 3 -10 6 9 21 -15
50 -81 23 -52 80 -173 127 -270 47 -97 97 -209 111 -249 15 -40 28 -75 30 -77
1 -2 21 12 44 30 40 34 40 34 34 89 -32 301 -134 607 -260 782 -19 27 -34 50
-34 52 0 3 34 -7 76 -21 94 -31 147 -74 140 -112 -18 -96 -18 -98 6 -104 13
-3 66 -23 118 -44 52 -22 125 -47 162 -57 66 -18 68 -19 79 -60 6 -22 12 -62
12 -88 0 -27 4 -48 8 -48 4 0 3 -17 -2 -37 -4 -22 -4 -66 1 -103 5 -36 10 -71
10 -77 0 -7 4 -13 9 -13 6 0 8 31 5 73 l-4 72 22 -45 c12 -25 24 -58 28 -75 6
-28 9 -30 50 -29 24 1 46 6 48 13 6 17 22 13 23 -6 1 -17 2 -17 6 -1 2 10 -5
29 -15 43 -20 25 -21 25 -27 5 -3 -11 -3 -25 1 -31 5 -8 3 -9 -5 -4 -8 4 -10
17 -6 33 4 15 13 77 20 139 8 62 21 126 30 142 8 17 15 39 15 51 0 11 5 20 10
20 6 0 10 7 10 16 0 23 32 74 46 74 7 0 16 17 22 38 l10 37 1 -33 1 -33 25 27
c14 15 25 34 26 43 0 11 2 12 6 3 3 -8 21 1 54 29 38 31 49 47 49 69 0 16 5
32 10 35 7 4 8 -3 4 -21 -7 -28 -7 -28 17 -13 13 9 25 28 27 43 4 35 20 34 17
-1 -3 -41 -4 -43 -19 -43 -16 0 -46 -42 -46 -65 0 -14 3 -14 25 1 14 9 25 23
25 31 0 8 5 11 11 8 5 -4 19 3 30 16 22 25 23 22 8 -18 l-10 -28 21 23 c29 31
31 28 13 -15 -9 -21 -17 -57 -18 -79 -1 -23 -9 -49 -18 -58 -22 -22 -30 -52
-19 -72 5 -9 7 -36 4 -60 -4 -36 -2 -44 12 -44 15 0 57 72 61 105 1 6 6 19 11
30 5 11 8 39 8 63 -1 24 2 38 6 32 5 -7 12 1 19 20 7 22 16 30 25 27 8 -3 17
2 21 11 6 15 8 14 16 -5 4 -13 15 -23 23 -23 8 0 16 -12 18 -27 l4 -28 12 28
c13 31 19 32 46 12 10 -8 23 -12 28 -9 5 3 15 1 22 -5 7 -6 30 -13 52 -16 21
-2 44 -12 49 -21 6 -8 15 -23 22 -32 10 -15 11 -14 6 6 -3 13 -1 22 6 22 6 0
10 3 9 8 -2 4 1 9 7 12 6 3 13 -22 18 -60 15 -118 76 -104 77 18 l1 47 14 -30
14 -30 -6 29 c-5 25 -3 27 15 22 11 -4 23 -3 26 3 3 5 34 12 68 16 35 4 73 13
86 21 20 13 26 11 23 -8 0 -5 6 -8 15 -8 14 0 16 8 11 43 -5 40 -5 41 8 17 7
-14 22 -25 32 -25 11 0 17 -7 17 -18 -1 -9 2 -17 7 -17 5 0 9 8 9 17 0 9 3 13
7 10 7 -8 33 58 33 86 0 24 11 21 38 -10 20 -25 22 -25 17 -6 -3 12 -1 24 5
28 5 3 10 15 10 25 0 26 49 62 78 57 14 -3 26 1 29 9 3 8 12 14 20 14 10 0 14
7 10 20 -3 11 -1 20 4 20 15 0 36 -44 49 -105 24 -115 31 -135 52 -155 30 -27
36 -25 40 12 2 17 9 34 17 36 10 3 12 0 8 -11 -5 -13 -1 -14 23 -6 15 6 36 19
46 30 9 10 26 19 37 19 19 0 20 -1 2 -20 -23 -26 -9 -26 30 0 45 30 66 27 63
-11 -3 -29 0 -32 42 -45 25 -8 54 -14 65 -14 28 0 29 -33 2 -46 -23 -10 -25
-23 -12 -111 5 -35 11 -44 31 -49 16 -4 23 -12 20 -20 -3 -8 -2 -14 3 -14 5 0
11 -9 14 -20 3 -11 1 -20 -4 -20 -5 0 -9 -10 -9 -22 0 -19 2 -20 11 -8 8 11 9
6 4 -20 -5 -26 -4 -31 4 -20 10 15 12 13 15 -12 0 -8 21 -15 51 -18 41 -4 46
-7 27 -13 -28 -10 -19 -27 15 -27 19 0 24 -4 19 -16 -7 -17 49 -124 65 -124
18 0 9 -21 -13 -29 -18 -7 -25 -4 -34 12 -6 11 -14 15 -17 10 -7 -11 -65 -5
-73 8 -19 31 -74 -39 -74 -93 0 -13 -6 -33 -14 -44 -8 -11 -16 -31 -18 -44 -3
-25 -3 -25 -135 -28 -153 -4 -138 -15 -147 118 -16 237 -27 290 -107 519 -16
45 -29 95 -29 110 0 20 -2 23 -10 11 -14 -22 -12 -63 5 -97 8 -17 22 -61 31
-99 8 -38 19 -82 24 -99 20 -71 22 -81 11 -65 -15 21 -13 4 4 -52 9 -31 13
-79 11 -134 -3 -72 -7 -89 -25 -107 -18 -18 -23 -19 -30 -8 -7 11 -10 9 -16
-8 -7 -23 -25 -29 -26 -8 0 6 -4 4 -8 -7 -4 -11 -7 2 -7 35 1 30 -3 68 -9 84
-8 26 -10 20 -15 -49 -4 -57 -11 -82 -23 -91 -24 -17 -21 -28 7 -23 19 4 22 1
18 -14 -4 -17 -13 -19 -71 -18 -36 1 -69 1 -73 0 -5 -1 -13 -3 -20 -4 -6 0
-13 -8 -15 -16 -4 -13 -3 -13 6 0 8 12 11 6 11 -25 0 -22 3 -50 6 -62 4 -15 0
-24 -15 -32 -14 -8 -21 -8 -21 -1 0 5 8 10 18 10 14 0 15 2 2 10 -9 5 -19 5
-27 -2 -10 -8 -13 -6 -13 7 0 9 9 19 20 22 23 6 27 20 5 20 -8 0 -15 -4 -15
-9 0 -4 -4 -8 -9 -8 -5 0 -11 19 -13 41 -3 31 3 55 24 97 31 61 38 150 16 213
-13 39 -81 107 -115 116 -28 6 -120 -1 -147 -12 -16 -7 -17 -5 -8 11 9 17 21
19 99 18 114 -2 115 -2 108 -14 -3 -5 1 -10 10 -10 9 0 14 4 11 9 -11 17 82
29 118 15 20 -8 20 -43 1 -114 -8 -30 -12 -62 -9 -72 2 -9 0 -19 -6 -23 -5 -3
-10 -16 -10 -28 0 -17 2 -19 9 -8 14 22 29 -16 26 -67 -2 -29 1 -42 9 -39 7 2
12 56 13 173 2 154 4 170 22 185 17 14 21 37 30 179 6 90 9 166 6 168 -3 3 -5
-1 -6 -9 0 -8 -6 -83 -12 -167 l-12 -154 -200 -4 c-110 -3 -219 -7 -242 -10
-42 -5 -43 -7 -44 -42 -3 -52 -4 -63 -14 -96 -8 -28 -9 -28 -22 -10 -12 16
-13 10 -10 -48 3 -49 1 -65 -8 -62 -9 4 -11 -3 -7 -21 3 -20 7 -24 14 -13 7 9
8 7 5 -9 -3 -13 -1 -23 4 -23 5 0 9 -8 9 -19 0 -10 7 -24 15 -31 26 -21 17
-29 -31 -27 -33 1 -50 -3 -59 -16 -22 -30 -33 2 -34 107 -2 101 -6 120 -21
111 -8 -5 -5 -188 3 -202 3 -5 -21 -6 -54 -5 -32 2 -59 7 -59 11 0 16 13 20
32 10 26 -14 47 3 30 24 -6 7 -13 33 -14 58 -4 55 -22 63 -26 12 -7 -80 -19
-49 -26 64 -3 64 -10 121 -14 125 -4 4 -6 -61 -5 -146 l4 -154 -51 0 c-48 -1
-50 0 -51 26 0 15 -4 35 -8 45 -12 31 -35 -6 -28 -43 4 -16 3 -29 -1 -29 -4 1
-19 1 -34 0 -21 -1 -28 -6 -28 -22 0 -19 -1 -19 -33 5 -68 52 -176 90 -296
105 -137 17 -389 -21 -493 -75 -24 -13 -69 -15 -244 -15 -153 1 -214 -2 -214
-10 0 -8 -4 -8 -12 -1 -7 5 -24 12 -37 14 -25 3 -44 43 -171 348 -29 69 -86
199 -127 290 -89 198 -103 242 -84 272 7 11 9 23 4 27 -6 5 -9 92 -4 149 1 16
4 16 95 -17z m-274 -598 c0 -13 3 -14 12 -5 14 14 108 16 108 3 0 -5 3 -18 6
-28 5 -15 4 -15 -5 -3 -9 13 -11 13 -11 -3 0 -12 -10 -20 -31 -24 -20 -4 -38
-16 -48 -34 -9 -16 -22 -29 -28 -29 -8 0 -13 -13 -13 -30 0 -16 5 -30 10 -30
6 0 10 5 10 11 0 5 5 7 10 4 6 -3 10 -1 10 5 0 6 4 8 10 5 5 -3 15 3 22 15 7
11 20 20 29 20 8 0 24 8 35 19 20 18 21 18 31 -10 6 -16 8 -27 3 -24 -5 3 -11
-1 -14 -7 -3 -7 -3 -2 0 12 4 22 4 23 -7 6 -9 -14 -8 -24 2 -45 10 -21 13 -23
16 -8 5 19 23 23 23 5 0 -21 -17 -41 -28 -35 -5 4 -15 -20 -22 -54 -9 -42 -16
-56 -22 -47 -6 8 -8 -2 -4 -29 5 -35 2 -47 -15 -64 -20 -20 -20 -23 -5 -31 9
-5 16 -14 16 -19 0 -6 -5 -7 -12 -3 -7 4 -8 3 -4 -5 6 -9 11 -9 22 0 8 6 18 9
21 5 4 -4 3 -10 -3 -14 -6 -4 -10 -28 -10 -54 1 -27 -2 -48 -6 -48 -3 0 -12
24 -19 53 -6 28 -23 81 -36 117 -27 71 -53 150 -74 220 -7 25 -19 56 -26 70
-17 33 -16 51 1 44 20 -8 38 30 30 61 -4 15 -2 25 5 25 6 0 11 -8 11 -17z
m1778 -528 c23 -27 23 -33 20 -161 -3 -123 -5 -135 -26 -156 -18 -18 -34 -23
-78 -23 -49 0 -59 4 -80 28 -23 27 -24 35 -24 155 0 136 8 163 54 183 40 17
108 4 134 -26z m-1538 -155 l0 -180 -45 0 -45 0 0 180 0 180 45 0 45 0 0 -180z
m210 115 c0 -51 3 -65 15 -65 12 0 15 14 15 65 l0 65 45 0 45 0 0 -180 0 -180
-45 0 -45 0 0 75 c0 60 -3 75 -15 75 -12 0 -15 -15 -15 -75 l0 -75 -45 0 -45
0 0 180 0 180 45 0 45 0 0 -65z m320 62 c0 -1 11 -76 25 -167 14 -91 25 -171
25 -177 0 -9 -15 -13 -44 -13 -42 0 -44 1 -50 35 -9 45 -34 47 -38 3 -3 -32
-5 -33 -52 -36 l-49 -3 6 43 c3 24 14 105 23 181 l17 137 69 0 c37 0 68 -1 68
-3z m145 -92 c7 -95 25 -132 25 -52 0 23 3 66 6 95 l7 52 49 0 49 0 -5 -32
c-3 -18 -13 -89 -21 -158 -24 -187 -14 -170 -95 -170 -39 0 -70 3 -70 8 0 4
-11 79 -25 167 -13 88 -25 166 -25 173 0 8 16 12 49 12 l49 0 7 -95z m305 60
c0 -32 -2 -35 -30 -35 -28 0 -30 -3 -30 -35 0 -32 2 -35 30 -35 28 0 30 -3 30
-35 0 -32 -2 -35 -30 -35 -28 0 -30 -2 -30 -40 0 -39 1 -40 35 -40 33 0 35 -2
35 -35 l0 -35 -80 0 -80 0 0 180 0 180 75 0 75 0 0 -35z m222 -42 l26 -78 1
78 1 77 40 0 40 0 0 -180 0 -180 -43 0 -44 0 -21 73 -20 72 -1 -72 -1 -73 -40
0 -40 0 0 180 0 180 38 0 38 0 26 -77z m568 -103 l0 -180 -45 0 -45 0 0 180 0
180 45 0 45 0 0 -180z m229 156 c19 -18 21 -29 21 -162 0 -174 0 -174 -127
-174 l-83 0 0 181 0 181 84 -3 c65 -3 89 -8 105 -23z m211 -11 c0 -32 -2 -35
-30 -35 -28 0 -30 -3 -30 -35 0 -32 2 -35 30 -35 28 0 30 -3 30 -35 0 -32 -2
-35 -30 -35 -28 0 -30 -2 -30 -40 0 -39 1 -40 35 -40 33 0 35 -2 35 -35 l0
-35 -80 0 -80 0 0 180 0 180 75 0 75 0 0 -35z m205 3 c8 -50 45 -308 45 -319
0 -5 -20 -9 -45 -9 -43 0 -44 1 -51 35 -7 37 -34 49 -34 16 0 -41 -11 -51 -57
-51 l-46 0 6 38 c3 20 14 101 23 180 l17 142 68 0 68 0 6 -32z m219 -14 c3
-26 6 -66 6 -90 0 -79 18 -46 25 46 l7 90 48 0 c55 0 51 9 67 -150 l7 -75 8
90 c12 138 11 135 64 135 l45 0 -5 -32 c-6 -37 -36 -301 -36 -318 0 -6 -25
-10 -59 -10 l-59 0 -11 63 c-6 35 -11 75 -12 88 -1 21 -2 21 -9 -6 -4 -16 -11
-56 -15 -87 l-6 -58 -60 0 c-32 0 -59 3 -59 8 0 10 -29 260 -35 310 l-6 42 44
0 44 0 7 -46z m386 -19 c0 -51 3 -65 15 -65 12 0 15 14 15 65 l0 65 45 0 45 0
0 -180 0 -180 -45 0 -45 0 0 75 c0 60 -3 75 -15 75 -12 0 -15 -15 -15 -75 l0
-75 -45 0 -45 0 0 180 0 180 45 0 45 0 0 -65z m320 58 c0 -5 12 -80 25 -168
14 -88 25 -166 25 -172 0 -9 -15 -13 -44 -13 -42 0 -44 1 -50 35 -9 45 -34 47
-38 3 -3 -32 -5 -33 -52 -36 l-49 -3 6 43 c3 24 14 105 24 181 l17 137 68 0
c37 0 68 -3 68 -7z m240 -28 c0 -32 -2 -35 -30 -35 l-30 0 0 -145 0 -145 -45
0 -45 0 0 145 0 145 -30 0 c-28 0 -30 3 -30 35 l0 35 105 0 105 0 0 -35z
m-1060 -221 c0 -8 -4 -12 -10 -9 -5 3 -10 1 -10 -4 0 -6 5 -11 11 -11 8 0 7
-5 -2 -16 -10 -13 -10 -17 2 -24 10 -7 16 -3 21 13 4 15 6 7 7 -25 1 -31 6
-50 16 -55 13 -8 13 -11 1 -28 -15 -19 -15 -19 -9 3 4 18 1 22 -18 22 -19 0
-21 2 -9 10 8 5 11 12 8 15 -10 10 -28 -4 -28 -21 0 -8 -5 -14 -11 -14 -8 0
-7 -5 2 -16 11 -14 11 -18 -4 -29 -17 -12 -17 -13 0 -20 10 -5 24 -9 32 -11 8
-1 23 -12 34 -23 19 -18 19 -21 4 -27 -10 -3 -28 1 -42 10 -15 10 -26 12 -30
6 -3 -6 -18 -9 -33 -9 -18 1 -21 3 -9 6 17 4 17 6 3 21 -16 19 -28 102 -14
102 4 0 8 -6 9 -12 0 -10 2 -10 6 0 2 6 13 12 24 12 25 0 33 35 19 94 -8 38
-8 51 2 57 15 10 28 2 28 -17z m700 -149 c7 -9 21 -13 31 -10 15 5 17 2 12
-11 -5 -13 -2 -15 17 -9 15 5 20 4 16 -4 -4 -6 -4 -16 0 -22 4 -8 9 -7 14 2 6
9 16 4 37 -18 15 -16 60 -44 98 -62 39 -18 73 -38 77 -44 3 -6 29 -11 57 -11
34 -1 51 -5 51 -13 0 -7 -4 -13 -10 -13 -5 0 -10 -4 -10 -9 0 -6 15 -11 33
-13 18 -2 32 -9 32 -16 0 -8 8 -19 17 -26 9 -7 20 -24 23 -39 8 -29 20 -35 28
-14 4 9 7 9 18 0 7 -7 23 -13 36 -13 25 0 31 -15 11 -24 -7 -3 -1 -4 15 -2 15
2 27 -1 27 -5 0 -12 -46 -23 -59 -14 -6 3 -11 1 -11 -5 0 -7 -6 -5 -15 4 -8 8
-15 21 -15 28 0 10 -2 10 -9 -1 -8 -12 -14 -12 -44 2 -49 23 -147 44 -252 52
-49 4 -101 9 -115 11 -14 2 -58 6 -97 10 -66 6 -73 5 -73 -11 0 -11 -5 -15
-14 -12 -11 5 -17 -6 -22 -40 -6 -44 -23 -44 -24 1 0 11 -25 73 -55 138 -49
103 -85 196 -85 221 0 4 56 7 124 7 98 0 126 -3 136 -15z m-1296 -174 c19 -19
21 -34 24 -155 3 -130 3 -134 -21 -162 -22 -26 -32 -29 -82 -29 -50 0 -60 3
-81 28 -23 27 -24 35 -24 155 0 136 8 163 54 183 34 15 106 4 130 -20z m606
14 c36 -19 50 -43 50 -89 0 -36 0 -36 -44 -36 -44 0 -45 0 -48 37 -2 20 -9 38
-16 41 -10 3 -12 -23 -10 -122 2 -73 7 -127 13 -129 6 -1 11 17 13 41 2 25 -1
42 -7 42 -6 0 -11 11 -11 25 0 24 3 25 55 25 l55 0 0 -95 0 -95 -30 0 c-16 0
-30 4 -30 10 0 5 -13 2 -28 -7 -34 -19 -73 -12 -102 19 -18 20 -20 35 -20 159
l0 137 31 26 c35 30 84 34 129 11z m-1560 -175 l0 -180 -45 0 -45 0 0 180 0
180 45 0 45 0 0 -180z m245 133 c15 -106 22 -113 30 -30 l7 77 64 0 64 0 0
-180 0 -180 -44 0 -45 0 0 81 c0 45 -2 83 -4 86 -3 2 -8 -27 -11 -64 -10 -96
-13 -103 -45 -103 -28 0 -28 1 -43 103 l-15 102 -2 -102 -1 -103 -40 0 -40 0
0 180 0 180 59 0 60 0 6 -47z m464 23 c19 -18 21 -29 21 -162 0 -174 0 -174
-127 -174 l-83 0 0 181 0 181 84 -3 c65 -3 89 -8 105 -23z m401 -156 l0 -180
-45 0 -45 0 0 180 0 180 45 0 45 0 0 -180z m143 103 l25 -78 1 78 1 77 40 0
40 0 0 -180 0 -180 -43 0 -44 0 -21 72 -20 73 -1 -72 -1 -73 -40 0 -40 0 0
180 0 180 39 0 39 0 25 -77z"/>
<path d="M574 2979 c-42 -15 -46 -32 -39 -149 4 -60 11 -110 16 -110 10 0 83
152 93 193 4 16 4 37 1 47 -6 20 -42 30 -71 19z"/>
<path d="M2903 1887 l-203 -10 0 -46 c0 -25 -3 -90 -7 -143 l-6 -98 130 0 c71
0 171 3 220 6 l91 7 6 91 c4 50 9 117 13 149 5 55 5 57 -18 55 -13 -1 -115 -6
-226 -11z"/>
<path d="M1081 1890 c-8 -79 120 -599 146 -593 4 1 36 15 71 30 l63 29 -86
170 c-48 93 -101 193 -118 223 -17 30 -41 75 -53 100 -13 25 -23 44 -23 41z"/>
<path d="M1848 1689 c-31 -41 -36 -62 -48 -185 -9 -100 -15 -118 -30 -94 -8
12 -10 12 -10 2 0 -8 9 -16 20 -19 15 -4 19 -11 14 -25 -6 -21 11 -48 32 -48
10 0 14 14 14 46 0 27 4 43 10 39 6 -4 10 15 10 49 0 30 -4 58 -10 61 -5 3
-10 -2 -10 -11 0 -10 -3 -15 -6 -11 -12 12 8 67 24 67 13 0 17 10 17 44 0 30
-4 42 -12 39 -9 -3 -8 5 3 26 23 46 12 60 -18 20z"/>
<path d="M1458 4513 c0 -5 -2 -12 -3 -18 -1 -5 -5 -18 -9 -27 -4 -9 -3 -26 4
-37 11 -22 30 -28 30 -11 0 6 5 10 11 10 6 0 9 -9 6 -20 -4 -17 0 -20 33 -20
22 0 42 5 45 11 4 6 13 8 21 5 8 -3 11 0 7 10 -3 7 -9 14 -13 14 -5 0 -6 9 -3
20 3 11 9 20 14 20 5 0 9 11 9 25 0 24 -2 25 -75 25 -41 0 -76 -3 -77 -7z"/>
<path d="M2110 4504 c0 -13 7 -15 30 -10 17 3 30 2 30 -3 0 -10 -86 -72 -92
-66 -7 7 -35 -27 -42 -52 -6 -20 -4 -23 19 -23 14 0 24 4 21 9 -4 5 -2 19 2
31 8 21 9 20 32 -13 13 -19 30 -33 37 -30 7 3 13 1 13 -5 0 -5 8 -12 19 -15
14 -3 17 0 14 13 -3 12 3 19 21 22 22 5 26 2 27 -21 1 -22 3 -20 11 12 9 33
38 54 38 27 0 -6 9 -20 20 -32 11 -12 20 -31 20 -43 0 -14 10 -24 32 -33 40
-15 35 -19 -26 -27 -62 -7 -74 -15 -46 -30 15 -8 19 -15 11 -19 -16 -11 -13
-29 4 -22 8 3 15 1 15 -5 0 -6 5 -7 10 -4 8 5 7 11 -1 21 -14 17 -6 29 15 21
9 -4 13 -13 10 -22 -5 -13 -2 -15 20 -9 20 5 26 2 26 -10 0 -9 -7 -16 -15 -16
-8 0 -15 -5 -15 -11 0 -6 8 -8 19 -4 17 5 19 2 17 -22 -2 -15 -4 -36 -5 -45 0
-10 -5 -18 -10 -18 -15 0 -21 30 -11 51 10 17 7 19 -25 19 -40 0 -51 -15 -41
-56 5 -20 11 -24 28 -18 19 6 20 3 15 -22 -3 -16 -9 -37 -12 -46 -9 -23 13
-24 30 -2 10 14 14 15 33 3 16 -10 22 -24 22 -51 0 -20 3 -43 6 -52 7 -17 34
-22 34 -6 0 6 10 5 25 -2 26 -12 49 -3 26 11 -10 7 -10 9 2 14 9 3 17 16 19
29 4 32 22 29 26 -5 3 -26 5 -27 45 -21 23 3 49 8 57 11 8 3 34 6 57 7 44 2
82 33 83 69 0 9 7 17 15 17 25 0 29 27 8 50 -22 23 -20 80 3 80 23 0 24 16 3
60 -22 45 -19 61 6 40 12 -10 15 -10 15 3 0 8 -6 18 -12 20 -8 3 -6 6 5 6 13
1 17 10 17 36 0 19 5 35 10 35 6 0 8 -10 5 -23 -4 -15 -1 -28 9 -36 9 -8 16
-10 16 -6 0 4 7 2 15 -5 18 -15 38 -3 31 17 -5 11 -2 13 10 9 10 -4 22 1 30
11 13 17 13 17 14 1 0 -28 25 -21 28 7 1 22 -2 25 -21 20 -17 -4 -25 0 -34 21
-7 15 -11 30 -8 32 3 3 5 0 5 -6 0 -7 5 -12 10 -12 6 0 10 18 10 40 0 33 -3
40 -20 40 -11 0 -20 4 -20 9 0 5 -3 18 -6 28 -4 14 -1 13 15 -6 19 -21 24 -22
51 -11 30 13 57 46 46 58 -3 3 -16 -4 -29 -16 -29 -27 -53 -28 -60 -3 -4 17
-18 18 -164 20 l-159 2 -10 -28 -11 -28 -8 28 c-4 15 -13 27 -21 27 -17 0 -17
-10 -4 -46 6 -16 7 -31 2 -36 -5 -5 -14 10 -22 36 -12 44 -14 46 -51 46 -26 0
-46 -7 -59 -20 -24 -24 -26 -45 -4 -36 14 5 15 4 4 -9 -17 -20 -33 -19 -47 5
-12 19 -59 50 -51 33 26 -53 32 -61 44 -56 10 4 13 -4 11 -33 -4 -58 -15 -70
-38 -43 -10 12 -19 26 -19 31 0 14 -22 9 -36 -9 -12 -16 -13 -16 -14 -2 0 9
-9 24 -20 34 -15 14 -17 20 -8 26 7 4 9 11 5 15 -4 4 -13 2 -20 -5 -9 -9 -14
-5 -23 21 -9 27 -16 33 -37 30 -14 -1 -28 2 -32 8 -3 5 -22 10 -41 10 -25 0
-34 -4 -34 -16z"/>
<path d="M3435 4497 c-11 -12 -19 -28 -17 -34 2 -7 -2 -13 -7 -13 -6 0 -4 -15
5 -35 15 -36 12 -55 -8 -55 -5 0 -8 7 -4 15 3 8 -2 19 -13 24 -9 5 -23 28 -31
51 -18 54 -32 46 -34 -19 -2 -46 0 -52 16 -48 14 4 17 0 14 -19 -3 -13 0 -26
5 -29 5 -4 9 1 9 9 0 9 5 16 10 16 6 0 10 -9 10 -19 0 -22 29 -36 44 -21 8 8
7 14 -4 20 -11 7 -12 12 -4 18 7 4 14 16 17 27 4 18 5 18 6 -2 1 -29 21 -30
21 -2 0 15 4 19 16 15 9 -3 22 -6 29 -6 8 0 15 -16 17 -42 3 -24 8 -50 12 -59
12 -27 -31 -32 -49 -6 -13 19 -16 20 -30 6 -14 -14 -14 -18 3 -40 11 -13 22
-34 26 -46 9 -27 32 -47 40 -34 4 5 2 13 -4 16 -8 5 -8 11 0 20 7 8 8 20 4 26
-5 9 -10 7 -16 -7 -8 -18 -8 -18 -5 1 1 11 15 26 31 33 22 11 27 19 23 38 -6
33 19 32 27 -1 5 -20 0 -31 -21 -50 -23 -19 -26 -26 -15 -36 6 -7 12 -23 12
-35 0 -13 5 -26 12 -30 8 -5 9 8 4 49 -6 57 1 70 23 43 8 -10 24 -12 51 -9 33
5 40 3 40 -11 0 -9 5 -16 10 -16 27 0 -13 50 -41 50 -9 1 -5 8 10 21 22 18 23
22 11 44 -7 13 -17 22 -22 19 -4 -3 -6 -10 -3 -15 12 -19 -28 -22 -41 -4 -22
29 -18 58 6 52 24 -6 38 11 16 19 -21 8 -20 27 2 47 26 24 33 21 30 -10 -4
-34 30 -47 39 -15 3 12 11 18 18 16 7 -3 15 2 19 12 4 11 2 15 -8 11 -8 -3
-21 2 -30 12 -15 16 -15 19 -1 31 8 7 15 16 15 21 0 5 -62 9 -137 8 -128 -1
-139 -2 -158 -22z"/>
<path d="M4315 4491 c-6 -26 -11 -31 -38 -32 -18 -1 -36 -1 -40 0 -4 1 -3 -8
3 -20 9 -16 8 -24 -5 -39 -9 -10 -14 -23 -11 -29 9 -14 -61 -6 -79 9 -12 10
-19 10 -27 2 -16 -16 -108 -16 -109 1 0 6 -5 1 -10 -12 -11 -27 -3 -43 12 -21
8 13 10 13 20 0 8 -11 12 -12 16 -2 5 12 35 17 46 6 3 -3 1 -19 -5 -36 -9 -25
-8 -32 6 -40 9 -5 16 -16 16 -25 0 -13 -3 -13 -15 -3 -12 10 -15 10 -15 -4 0
-9 6 -16 13 -16 23 0 36 22 30 51 -4 22 -1 30 13 36 11 4 24 14 31 22 11 14
12 14 13 -1 0 -10 -4 -18 -10 -18 -5 0 -10 -7 -10 -15 0 -8 4 -15 9 -15 5 0
16 -3 24 -6 12 -4 16 3 19 28 2 27 9 35 36 44 18 5 29 13 26 17 -4 4 -2 7 4 7
16 0 15 33 0 48 -9 9 -8 12 5 12 9 0 17 -6 17 -14 0 -8 11 -23 25 -34 14 -11
25 -29 25 -41 0 -34 37 -27 42 8 3 21 1 28 -9 24 -8 -3 -27 7 -44 23 -32 30
-38 47 -14 38 8 -4 15 -1 15 5 0 6 7 11 16 11 8 0 12 -4 9 -10 -4 -6 8 -11 27
-11 30 -2 31 -2 6 -6 -38 -6 -35 -23 3 -23 24 0 30 -4 25 -15 -3 -9 1 -18 9
-21 13 -5 13 -8 0 -21 -18 -17 -11 -33 14 -33 10 0 24 -7 31 -15 19 -23 -14
-30 -54 -11 -39 18 -56 20 -56 6 0 -5 12 -10 28 -11 15 0 21 -3 14 -6 -10 -4
-10 -8 -1 -19 9 -11 9 -14 -1 -14 -7 0 -19 -8 -26 -17 -10 -14 -15 -15 -25 -6
-9 9 -15 9 -25 -2 -21 -21 -17 -24 26 -20 22 2 40 -1 40 -6 0 -5 -3 -9 -8 -9
-4 0 -12 -8 -19 -19 -15 -24 -5 -64 13 -57 8 3 14 -1 14 -9 0 -8 5 -15 10 -15
6 0 10 7 10 17 0 14 2 14 20 -2 28 -25 25 -41 -10 -57 -33 -14 -37 -23 -15
-32 8 -3 15 -10 15 -16 0 -5 -7 -10 -15 -10 -10 0 -15 -11 -15 -35 0 -26 4
-33 14 -29 8 3 12 12 10 19 -4 8 6 16 25 20 18 4 31 13 31 22 0 20 24 11 28
-10 2 -12 -3 -17 -19 -17 -21 0 -21 -1 -6 -18 10 -10 17 -28 17 -40 0 -12 3
-22 8 -22 4 0 8 36 9 80 2 79 2 80 -22 80 -14 0 -25 5 -25 10 0 6 10 8 24 4
l25 -6 1 236 0 236 -81 0 c-71 0 -80 -2 -69 -15 10 -12 9 -15 -8 -15 -11 0
-22 -6 -25 -12 -2 -7 -8 -9 -13 -5 -5 4 -2 12 6 17 11 7 12 12 3 21 -8 8 -13
3 -18 -20z"/>
<path d="M3390 3956 c0 -3 5 -17 10 -32 12 -32 4 -64 -16 -64 -8 0 -14 -7 -14
-16 0 -8 -6 -25 -12 -37 -7 -12 -13 -31 -13 -41 0 -11 -6 -21 -12 -23 -8 -3
-13 4 -13 17 0 13 -5 20 -12 18 -7 -3 -13 -17 -13 -32 -1 -23 2 -27 22 -23 18
3 21 1 12 -9 -13 -16 16 -65 34 -58 20 9 58 74 43 74 -16 0 -41 28 -33 37 4 3
13 1 21 -6 11 -9 15 -9 19 1 4 10 8 10 16 -2 7 -11 9 4 7 53 -2 37 0 70 5 73
14 8 11 19 -16 48 -22 24 -35 32 -35 22z"/>
</g>
</svg>
